<?xml version="1.0" encoding="utf-8"?>
<!-- Generator: Adobe Illustrator 26.0.1, SVG Export Plug-In . SVG Version: 6.00 Build 0)  -->
<svg version="1.1" id="Layer_1" xmlns="http://www.w3.org/2000/svg" xmlns:xlink="http://www.w3.org/1999/xlink" x="0px" y="0px"
	 viewBox="0 0 576 144" style="enable-background:new 0 0 576 144;" xml:space="preserve">
<style type="text/css">
	.st0{fill:#C2D500;}
	.st1{fill:#004D71;}
</style>
<rect x="17.04" y="41.8" class="st0" width="138.6" height="8.3"/>
<g>
	<path class="st0" d="M17.04,79.25h14.02c2.55,0,4.66,0.35,6.31,1.04c1.65,0.7,2.96,1.58,3.91,2.65c0.96,1.07,1.62,2.27,2,3.6
		c0.38,1.33,0.56,2.62,0.56,3.86c0,1.28-0.23,2.51-0.68,3.69c-0.45,1.18-1.1,2.25-1.94,3.21c-0.84,0.96-1.88,1.77-3.1,2.42
		c-1.22,0.66-2.58,1.06-4.08,1.21l11.32,18.19h-6.76l-10.14-17.57h-6.03v17.57h-5.41V79.25z M22.45,96.82h7.1
		c1.05,0,2.09-0.08,3.13-0.25c1.03-0.17,1.95-0.48,2.76-0.93c0.81-0.45,1.45-1.1,1.94-1.94c0.49-0.85,0.73-1.94,0.73-3.29
		s-0.24-2.45-0.73-3.29c-0.49-0.84-1.14-1.49-1.94-1.94c-0.81-0.45-1.73-0.76-2.76-0.93c-1.03-0.17-2.08-0.25-3.13-0.25h-7.1V96.82z
		"/>
	<path class="st0" d="M51.46,79.25h5.41v39.87h-5.41V79.25z"/>
	<path class="st0" d="M66.21,79.25h13.91c2.82,0,5.28,0.32,7.41,0.96c2.12,0.64,3.96,1.49,5.52,2.56c1.56,1.07,2.85,2.3,3.89,3.69
		c1.03,1.39,1.85,2.82,2.45,4.28c0.6,1.46,1.03,2.93,1.3,4.39c0.26,1.46,0.39,2.82,0.39,4.06c0,2.55-0.47,5.02-1.41,7.41
		c-0.94,2.39-2.33,4.51-4.17,6.36c-1.84,1.86-4.12,3.35-6.84,4.48c-2.72,1.13-5.87,1.69-9.43,1.69H66.21V79.25z M71.62,114.05h6.81
		c2.29,0,4.46-0.31,6.5-0.93c2.05-0.62,3.84-1.55,5.38-2.79c1.54-1.24,2.76-2.79,3.66-4.65c0.9-1.86,1.35-4.03,1.35-6.5
		c0-1.28-0.21-2.77-0.62-4.48c-0.41-1.71-1.19-3.33-2.34-4.87c-1.15-1.54-2.73-2.84-4.76-3.91s-4.66-1.61-7.88-1.61h-8.11V114.05z"
		/>
	<path class="st0" d="M108.85,79.25h25.74v5.07h-20.33V96.2h18.92v5.07h-18.92v12.78h21.35v5.07h-26.75V79.25z"/>
</g>
<path class="st1" d="M154.06,99.77c2.32,3.48,5.28,6.04,8.9,7.69c3.61,1.65,7.33,2.47,11.17,2.47c2.14,0,4.32-0.33,6.55-1
	c2.23-0.67,4.26-1.67,6.09-3.01c1.83-1.34,3.32-2.99,4.48-4.95c1.16-1.96,1.74-4.23,1.74-6.82c0-3.66-1.16-6.44-3.48-8.36
	c-2.32-1.92-5.2-3.52-8.63-4.82c-3.43-1.29-7.18-2.54-11.24-3.75c-4.06-1.2-7.8-2.88-11.24-5.02c-3.43-2.14-6.31-5.02-8.63-8.63
	c-2.32-3.61-3.48-8.49-3.48-14.65c0-2.76,0.6-5.71,1.81-8.83c1.2-3.12,3.1-5.97,5.69-8.56c2.59-2.59,5.91-4.75,9.97-6.49
	c4.06-1.74,8.94-2.61,14.65-2.61c5.17,0,10.12,0.72,14.85,2.14c4.73,1.43,8.87,4.33,12.44,8.69l-10.43,9.5
	c-1.6-2.5-3.88-4.5-6.82-6.02c-2.94-1.52-6.29-2.27-10.03-2.27c-3.57,0-6.53,0.47-8.9,1.4c-2.36,0.94-4.26,2.14-5.69,3.61
	c-1.43,1.47-2.43,3.06-3.01,4.75c-0.58,1.7-0.87,3.26-0.87,4.68c0,4.01,1.16,7.09,3.48,9.23c2.32,2.14,5.19,3.88,8.63,5.22
	c3.43,1.34,7.18,2.54,11.24,3.61c4.06,1.07,7.8,2.56,11.24,4.48c3.43,1.92,6.31,4.5,8.63,7.76c2.32,3.26,3.48,7.74,3.48,13.44
	c0,4.55-0.87,8.65-2.61,12.31c-1.74,3.66-4.08,6.73-7.02,9.23c-2.94,2.5-6.42,4.41-10.43,5.75c-4.01,1.34-8.29,2.01-12.84,2.01
	c-6.06,0-11.82-1.07-17.26-3.21c-5.44-2.14-9.76-5.44-12.97-9.9L154.06,99.77z"/>
<path class="st1" d="M225.62,24.86h12.84v39.33h49.09V24.86h12.84v94.7h-12.84V76.22h-49.09v43.34h-12.84V24.86z"/>
<path class="st1" d="M354.43,24.86h11.64l40.53,94.7h-14.98l-9.5-23.41h-45.08l-9.36,23.41H312.7L354.43,24.86z M377.44,84.92
	l-17.66-43.47h-0.27l-17.92,43.47H377.44z"/>
<path class="st1" d="M418.91,24.86h33.31c6.06,0,11.06,0.83,14.98,2.47c3.92,1.65,7.02,3.75,9.3,6.29c2.27,2.54,3.86,5.4,4.75,8.56
	c0.89,3.17,1.34,6.22,1.34,9.16c0,3.03-0.54,5.95-1.61,8.76c-1.07,2.81-2.61,5.35-4.61,7.62c-2.01,2.27-4.46,4.19-7.36,5.75
	c-2.9,1.56-6.13,2.52-9.7,2.88l26.89,43.2h-16.05l-24.08-41.73h-14.31v41.73h-12.84V24.86z M431.75,66.59h16.85
	c2.5,0,4.97-0.2,7.42-0.6c2.45-0.4,4.64-1.14,6.56-2.21c1.92-1.07,3.45-2.61,4.61-4.61c1.16-2.01,1.74-4.61,1.74-7.82
	c0-3.21-0.58-5.82-1.74-7.82c-1.16-2.01-2.7-3.54-4.61-4.61c-1.92-1.07-4.1-1.81-6.56-2.21c-2.45-0.4-4.93-0.6-7.42-0.6h-16.85
	V66.59z"/>
<rect x="500.85" y="64.73" class="st0" width="61.01" height="12.91"/>
<rect x="500.85" y="24.83" class="st1" width="61.01" height="12.91"/>
<rect x="500.85" y="106.97" class="st1" width="63.36" height="12.91"/>
<rect x="17.04" y="22.45" class="st1" width="162.39" height="8.3"/>
<rect x="17.04" y="60.53" class="st1" width="147.3" height="8.3"/>
</svg>
