<?xml version="1.0" standalone="no"?>
<!DOCTYPE svg PUBLIC "-//W3C//DTD SVG 20010904//EN"
 "http://www.w3.org/TR/2001/REC-SVG-20010904/DTD/svg10.dtd">
<svg version="1.0" xmlns="http://www.w3.org/2000/svg"
 width="1082.000000pt" height="147.000000pt" viewBox="0 0 1082.000000 147.000000"
 preserveAspectRatio="xMidYMid meet">
<metadata>
Created by potrace 1.16, written by Peter Selinger 2001-2019
</metadata>
<g transform="translate(0.000000,147.000000) scale(0.100000,-0.100000)"
fill="#005984" stroke="none">
<path d="M4581 1425 c-115 -36 -155 -164 -79 -250 21 -25 50 -41 109 -60 103
-35 139 -64 139 -114 0 -98 -162 -138 -229 -57 -12 14 -16 14 -43 -5 l-29 -21
22 -24 c52 -55 188 -71 266 -30 87 45 111 177 44 244 -18 18 -64 41 -120 61
-98 35 -131 63 -131 111 0 39 35 78 81 90 48 13 89 6 124 -22 l27 -21 25 25
25 25 -30 21 c-29 21 -99 42 -137 41 -11 0 -40 -6 -64 -14z"/>
<path d="M6562 1425 c-152 -42 -242 -185 -214 -337 21 -116 81 -191 180 -229
73 -27 202 -23 275 9 l47 21 0 140 0 141 -95 0 -95 0 0 -30 0 -30 65 0 65 0 0
-90 c0 -89 0 -91 -27 -101 -46 -18 -139 -23 -187 -9 -89 25 -153 104 -163 205
-17 159 123 289 274 255 29 -6 66 -22 82 -35 l28 -24 23 24 c20 21 21 27 9 41
-40 49 -177 74 -267 49z"/>
<path d="M2910 1136 l0 -286 35 0 35 0 0 129 0 129 93 4 c102 4 143 20 181 71
29 39 29 125 0 163 -46 63 -64 69 -210 72 l-134 4 0 -286z m276 191 c25 -30
31 -75 14 -108 -18 -33 -64 -49 -145 -49 l-75 0 0 96 0 96 91 -4 c85 -3 92 -5
115 -31z"/>
<path d="M3390 1135 l0 -285 30 0 30 0 0 285 0 285 -30 0 -30 0 0 -285z"/>
<path d="M3510 1390 l0 -30 95 0 95 0 0 -255 0 -255 30 0 30 0 0 255 0 255 95
0 95 0 0 30 0 30 -220 0 -220 0 0 -30z"/>
<path d="M4000 1390 l0 -30 95 0 95 0 0 -255 0 -255 30 0 30 0 0 255 0 255 95
0 95 0 0 30 0 30 -220 0 -220 0 0 -30z"/>
<path d="M4910 1134 l0 -287 129 5 c112 5 135 9 172 29 61 34 81 67 81 129 0
61 -20 94 -76 126 l-38 22 30 18 c40 23 57 57 56 110 -2 99 -63 133 -236 134
l-118 0 0 -286z m234 216 c65 -24 73 -114 13 -150 -24 -15 -50 -20 -109 -20
l-78 0 0 90 0 90 74 0 c41 0 86 -4 100 -10z m21 -244 c42 -18 71 -71 61 -110
-15 -59 -73 -86 -188 -86 l-68 0 0 105 0 105 80 0 c48 0 95 -6 115 -14z"/>
<path d="M5380 1223 c0 -112 5 -215 11 -238 27 -100 106 -151 221 -143 85 7
129 34 163 102 24 49 25 56 25 263 l0 213 -30 0 -30 0 0 -192 c0 -106 -5 -209
-10 -229 -5 -19 -23 -48 -40 -64 -24 -23 -41 -29 -87 -33 -48 -3 -64 0 -93 20
-58 39 -69 89 -70 311 l0 187 -30 0 -30 0 0 -197z"/>
<path d="M5920 1135 l0 -285 30 0 30 0 0 130 0 130 48 0 47 0 76 -128 77 -127
41 -3 42 -3 -81 131 c-44 71 -80 132 -80 134 0 2 14 6 31 10 43 8 96 64 104
109 16 85 -24 155 -101 176 -21 6 -90 11 -151 11 l-113 0 0 -285z m276 192
c28 -33 32 -82 9 -114 -20 -29 -73 -43 -157 -43 l-68 0 0 96 0 96 96 -4 c91
-3 97 -5 120 -31z"/>
<path d="M6970 1135 l0 -285 30 0 30 0 0 135 0 135 155 0 155 0 0 -135 0 -135
30 0 30 0 0 285 0 285 -30 0 -30 0 0 -120 0 -120 -155 0 -155 0 0 120 0 120
-30 0 -30 0 0 -285z"/>
<path d="M1915 1230 c-207 -46 -342 -183 -376 -383 -29 -175 33 -362 153 -460
184 -151 467 -150 621 1 26 25 47 49 47 53 0 4 -41 38 -91 75 l-91 68 -20 -27
c-23 -32 -78 -62 -130 -72 -62 -12 -138 17 -187 70 -59 64 -75 105 -75 201 -1
70 3 88 29 140 67 131 227 174 338 90 l43 -32 82 68 c82 69 82 69 65 93 -25
32 -99 81 -153 100 -53 19 -199 28 -255 15z"/>
<path d="M30 760 l0 -460 115 0 115 0 0 168 0 169 118 6 c142 8 208 27 267 79
59 52 80 110 79 213 -1 90 -16 133 -63 187 -66 75 -169 98 -443 98 l-188 0 0
-460z m415 245 c64 -26 71 -110 12 -146 -25 -15 -51 -19 -114 -19 l-83 0 0 90
0 90 75 0 c44 0 90 -6 110 -15z"/>
<path d="M790 1115 l0 -105 125 0 125 0 0 -355 0 -355 110 0 110 0 0 355 0
355 125 0 125 0 0 105 0 105 -360 0 -360 0 0 -105z"/>
<path d="M4030 615 c-63 -20 -124 -75 -157 -143 -24 -49 -28 -69 -28 -142 0
-100 21 -155 80 -215 57 -56 115 -79 205 -79 81 0 138 22 187 70 l25 25 -26
20 c-25 20 -25 20 -45 0 -78 -78 -202 -77 -286 0 -94 87 -102 247 -17 341 82
92 191 101 294 26 15 -11 21 -9 40 10 l23 23 -30 25 c-64 51 -172 67 -265 39z"/>
<path d="M5894 614 c-189 -67 -247 -346 -103 -494 59 -60 117 -84 209 -84 66
-1 82 3 129 30 72 40 82 57 54 85 l-22 22 -35 -31 c-79 -70 -187 -67 -268 6
-56 50 -78 102 -78 182 0 103 43 176 128 219 67 34 150 23 224 -31 14 -10 21
-9 38 7 l20 18 -26 28 c-53 55 -180 75 -270 43z"/>
<path d="M7524 614 c-60 -21 -119 -77 -151 -142 -24 -49 -28 -69 -28 -142 0
-100 21 -155 80 -215 57 -56 115 -79 205 -79 81 0 138 22 187 70 l25 25 -26
20 c-25 20 -25 20 -45 0 -81 -81 -209 -78 -291 8 -117 120 -83 323 65 392 67
31 145 20 217 -33 15 -11 21 -9 40 10 l23 23 -30 25 c-65 52 -184 69 -271 38z"/>
<path d="M8070 621 c-86 -28 -139 -73 -183 -155 -31 -58 -31 -200 -1 -267 26
-56 81 -111 142 -140 66 -32 177 -32 247 -1 112 51 170 145 169 277 -1 174
-105 285 -274 292 -41 1 -86 -1 -100 -6z m176 -70 c49 -23 107 -88 122 -140
56 -184 -91 -353 -270 -311 -65 16 -137 84 -156 146 -15 51 -16 133 -1 171 47
125 188 187 305 134z"/>
<path d="M9997 614 c-35 -11 -66 -32 -107 -72 -48 -47 -61 -68 -75 -116 -20
-67 -16 -161 9 -220 22 -54 91 -121 149 -147 71 -32 197 -32 280 0 l57 22 0
140 0 139 -95 0 -95 0 0 -30 0 -30 65 0 65 0 0 -86 0 -85 -32 -13 c-130 -54
-270 -7 -324 107 -42 91 -29 194 35 268 70 83 175 102 274 50 l55 -29 21 22
21 22 -24 23 c-51 48 -183 64 -279 35z"/>
<path d="M2910 590 l0 -29 93 -3 92 -3 3 -252 2 -253 30 0 30 0 0 255 0 255
293 0 293 0 11 30 11 30 -429 0 -429 0 0 -30z"/>
<path d="M4410 335 l0 -285 30 0 30 0 0 130 0 130 155 0 155 0 0 -130 0 -130
30 0 30 0 0 285 0 285 -30 0 -30 0 0 -125 0 -126 -152 3 -153 3 -3 123 -3 122
-29 0 -30 0 0 -285z"/>
<path d="M4950 336 l0 -286 35 0 35 0 0 237 0 236 163 -236 162 -236 43 -1 42
0 0 285 0 285 -30 0 -30 0 0 -235 c0 -129 -3 -235 -7 -234 -5 0 -80 105 -168
232 l-160 232 -42 3 -43 3 0 -285z"/>
<path d="M5550 335 l0 -285 30 0 30 0 0 285 0 285 -30 0 -30 0 0 -285z"/>
<path d="M6476 612 c-6 -10 -224 -506 -237 -540 -8 -22 -7 -23 28 -20 35 3 38
6 63 68 l26 65 145 3 144 2 29 -70 c27 -67 30 -70 62 -70 19 0 34 3 34 8 0 4
-52 132 -117 285 -113 268 -117 277 -144 277 -15 0 -30 -4 -33 -8z m69 -174
c20 -51 46 -114 56 -140 l19 -48 -116 0 c-113 0 -115 0 -109 21 10 32 107 259
110 259 2 0 20 -42 40 -92z"/>
<path d="M6840 335 l0 -285 150 0 150 0 10 26 c6 14 10 27 10 30 0 2 -58 4
-130 4 l-130 0 0 255 0 255 -30 0 -30 0 0 -285z"/>
<path d="M8520 335 l0 -285 149 0 149 0 11 30 10 30 -130 0 -129 0 0 255 0
255 -30 0 -30 0 0 -285z"/>
<path d="M8940 335 l0 -285 148 0 149 0 11 25 c7 14 12 28 12 30 0 3 -58 5
-130 5 l-130 0 0 255 0 255 -30 0 -30 0 0 -285z"/>
<path d="M9360 335 l0 -285 170 0 c157 0 170 1 180 19 20 39 15 41 -140 41
l-150 0 0 100 0 100 120 0 120 0 0 30 0 29 -117 3 -118 3 -3 93 -3 92 134 0
c134 0 134 0 145 25 7 14 12 28 12 30 0 3 -79 5 -175 5 l-175 0 0 -285z"/>
<path d="M10420 335 l0 -285 174 0 c172 0 174 0 180 23 3 12 6 25 6 30 0 4
-67 7 -150 7 l-150 0 0 100 0 100 125 0 125 0 0 30 0 29 -122 3 -123 3 0 90 0
90 133 3 c132 3 133 3 142 28 6 14 10 27 10 30 0 2 -79 4 -175 4 l-175 0 0
-285z"/>
<path d="M3420 340 l0 -30 165 0 165 0 0 30 0 30 -165 0 -165 0 0 -30z"/>
<path d="M3420 80 l0 -30 168 0 169 0 11 25 c7 14 12 28 12 30 0 3 -81 5 -180
5 l-180 0 0 -30z"/>
</g>
</svg>
